<svg width="64" height="64" viewBox="0 0 64 64" fill="none" xmlns="http://www.w3.org/2000/svg">
<path d="M60.0565 4.00793H3.9435C1.769 4.00793 0 5.77706 0 7.95156V46.0282C0 48.2027 1.769 49.9718 3.9435 49.9718H25.0504V54.1089H19.054C17.9403 54.1089 17.0343 55.0151 17.0343 56.1287V57.9722C17.0343 59.0859 17.9404 59.9921 19.054 59.9921H44.9459C46.0596 59.9921 46.9656 59.0859 46.9656 57.9722V56.1287C46.9656 55.0149 46.0595 54.1089 44.9459 54.1089H38.9496V49.9718H60.0564C62.2309 49.9718 63.9999 48.2027 63.9999 46.0282V7.95156C64 5.77706 62.231 4.00793 60.0565 4.00793ZM45.0908 56.1286V57.9721C45.0908 58.0519 45.0257 58.1169 44.946 58.1169H19.0541C18.9742 58.1169 18.9094 58.0519 18.9094 57.9721V56.1286C18.9094 56.0487 18.9744 55.9838 19.0541 55.9838H44.946C45.0257 55.9838 45.0908 56.0488 45.0908 56.1286ZM37.0747 54.1088H26.9255V49.9717H37.0747V54.1088ZM62.125 46.0282C62.125 47.1688 61.1971 48.0968 60.0565 48.0968H3.9435C2.80288 48.0968 1.875 47.1688 1.875 46.0282V7.95156C1.875 6.81093 2.80288 5.88306 3.9435 5.88306H60.0564C61.197 5.88306 62.1249 6.81093 62.1249 7.95156V46.0282H62.125Z" fill="#5A57EB"/>
<path d="M59.0547 8.01611H10.9579C10.4402 8.01611 10.0204 8.43586 10.0204 8.95361C10.0204 9.47136 10.4402 9.89111 10.9579 9.89111H58.1171V44.0887H5.88318V9.89111H6.9498C7.46755 9.89111 7.8873 9.47136 7.8873 8.95361C7.8873 8.43586 7.46755 8.01611 6.9498 8.01611H4.94568C4.42793 8.01611 4.00818 8.43586 4.00818 8.95361V45.0262C4.00818 45.544 4.42793 45.9637 4.94568 45.9637H59.0546C59.5723 45.9637 59.9921 45.544 59.9921 45.0262V8.95361C59.9922 8.43586 59.5724 8.01611 59.0547 8.01611Z" fill="#5A57EB"/>
<path d="M18.9744 32.0644H14.9663C13.8968 32.0644 13.0268 32.9344 13.0268 34.0039V38.0766H10.9581C10.4404 38.0766 10.0206 38.4963 10.0206 39.0141C10.0206 39.5318 10.4404 39.9516 10.9581 39.9516H53.0429C53.5606 39.9516 53.9804 39.5318 53.9804 39.0141C53.9804 38.4963 53.5606 38.0766 53.0429 38.0766H50.9744V36.0081C50.9744 35.4903 50.5546 35.0706 50.0369 35.0706C49.5191 35.0706 49.0994 35.4903 49.0994 36.0081V38.0766H44.9623V15.9677C44.9623 15.9321 44.9911 15.9032 45.0268 15.9032H49.0349C49.0705 15.9032 49.0994 15.9321 49.0994 15.9677V31.9999C49.0994 32.5177 49.5191 32.9374 50.0369 32.9374C50.5546 32.9374 50.9744 32.5177 50.9744 31.9999V15.9677C50.9744 14.8982 50.1044 14.0282 49.0349 14.0282H45.0268C43.9573 14.0282 43.0873 14.8982 43.0873 15.9677V38.0766H40.9543V27.9919C40.9543 26.9224 40.0843 26.0524 39.0148 26.0524H35.0068C33.9373 26.0524 33.0673 26.9224 33.0673 27.9919V38.0766H30.9343V21.9798C30.9343 20.9103 30.0643 20.0403 28.9948 20.0403H24.9868C23.9173 20.0403 23.0473 20.9103 23.0473 21.9798V38.0766H20.9143V34.0039C20.9139 32.9346 20.0438 32.0644 18.9744 32.0644ZM14.9016 34.0039C14.9016 33.9683 14.9305 33.9394 14.9661 33.9394H18.9743C19.0099 33.9394 19.0388 33.9683 19.0388 34.0039V38.0766H14.9016V34.0039ZM34.942 27.9919C34.942 27.9563 34.9709 27.9274 35.0065 27.9274H39.0145C39.0501 27.9274 39.079 27.9563 39.079 27.9919V38.0766H34.9419V27.9919H34.942ZM24.9219 21.9798C24.9219 21.9442 24.9508 21.9153 24.9864 21.9153H28.9944C29.03 21.9153 29.0589 21.9442 29.0589 21.9798V38.0766H24.9218V21.9798H24.9219Z" fill="#5A57EB"/>
</svg>
