<svg width="64" height="64" viewBox="0 0 64 64" fill="none" xmlns="http://www.w3.org/2000/svg">
<path d="M61.0583 5.01016C59.4362 5.01016 58.1167 6.32982 58.1167 7.95174C58.1167 8.42138 58.228 8.86539 58.4246 9.25965L55.0765 12.6077C51.566 6.85483 45.2297 3.0061 38.0113 3.0061C26.9964 3.0061 18.035 11.9675 18.035 22.9824C18.035 28.1533 20.01 32.8715 23.2453 36.4226L19.0819 40.586C17.6355 39.7305 15.7361 39.9236 14.4943 41.1655L1.10291 54.5568C-0.367635 56.0274 -0.367635 58.4202 1.10291 59.8908C1.83818 60.6261 2.80408 60.9937 3.76985 60.9937C4.73563 60.9937 5.70166 60.6261 6.4368 59.8908L14.2911 52.0366C14.6573 51.6704 14.6573 51.0768 14.2911 50.7107C13.925 50.3445 13.3314 50.3445 12.9654 50.7107L5.11101 58.5649C4.37149 59.3043 3.16834 59.3045 2.42869 58.5649C1.68917 57.8254 1.68917 56.6221 2.42869 55.8826L13.9623 44.3491L16.6446 47.0314L15.7209 47.9551C15.3548 48.3212 15.3548 48.9147 15.7209 49.2809C16.0871 49.647 16.6807 49.647 17.0467 49.2809L19.828 46.4995C20.5404 45.7872 20.9328 44.84 20.9328 43.8326C20.9328 43.1456 20.7501 42.4869 20.4082 41.9113L24.5709 37.7486C28.122 40.9838 32.8403 42.9588 38.0112 42.9588C49.0262 42.9588 57.9876 33.9975 57.9876 22.9824C57.9876 19.8822 57.2777 16.9447 56.0119 14.3239L59.7503 10.5856C60.1445 10.7822 60.5885 10.8934 61.0582 10.8934C62.6802 10.8934 63.9997 9.57378 63.9997 7.95186C64 6.32969 62.6803 5.01016 61.0583 5.01016ZM18.5024 45.1736L17.9705 45.7055L15.2882 43.0232L15.8201 42.4913C16.5596 41.7518 17.7629 41.7518 18.5024 42.4913C18.8606 42.8496 19.0579 43.3258 19.0579 43.8325C19.0579 44.3391 18.8606 44.8154 18.5024 45.1736ZM56.1127 22.9824C56.1127 32.9636 47.9924 41.0838 38.0113 41.0838C28.0303 41.0838 19.91 32.9636 19.91 22.9824C19.91 13.0014 28.0303 4.88115 38.0113 4.88115C44.7157 4.88115 50.5805 8.545 53.7086 13.9757L44.3295 23.3548C43.9352 23.1582 43.4912 23.0469 43.0215 23.0469C42.3137 23.0469 41.6634 23.2983 41.1553 23.7165L37.866 21.6607C37.9183 21.4416 37.9468 21.2132 37.9468 20.9783C37.9468 19.3563 36.6271 18.0368 35.0052 18.0368C33.3833 18.0368 32.0636 19.3564 32.0636 20.9783C32.0636 21.448 32.1749 21.892 32.3715 22.2863L25.3968 29.2609C24.4514 27.3693 23.9184 25.2371 23.9184 22.9824C23.9184 15.2114 30.2406 8.88926 38.0115 8.88926C42.1775 8.88926 46.108 10.7186 48.795 13.908C49.1285 14.3039 49.72 14.3545 50.116 14.021C50.512 13.6874 50.5626 13.096 50.229 12.7C47.1849 9.08664 42.7318 7.01434 38.0117 7.01434C29.2068 7.01434 22.0435 14.1777 22.0435 22.9825C22.0435 31.7874 29.2068 38.9507 38.0117 38.9507C46.8167 38.9507 53.9798 31.7874 53.9798 22.9825C53.9798 21.0492 53.6381 19.1632 52.9651 17.3712L54.5982 15.7381C55.5711 17.9575 56.1127 20.4077 56.1127 22.9824ZM52.1045 22.9824C52.1045 30.7534 45.7824 37.0755 38.0114 37.0755C33.1865 37.0755 28.9209 34.638 26.3795 30.93L33.6974 23.612C34.0917 23.8087 34.5357 23.9199 35.0053 23.9199C35.7132 23.9199 36.3635 23.6685 36.8716 23.2503L40.1608 25.3061C40.1086 25.5252 40.0801 25.7536 40.0801 25.9885C40.0801 27.6105 41.3998 28.9301 43.0217 28.9301C44.6436 28.9301 45.9633 27.6104 45.9633 25.9885C45.9633 25.5188 45.852 25.0748 45.6555 24.6806L51.488 18.848C51.8968 20.1812 52.1045 21.5671 52.1045 22.9824ZM35.0052 22.0449C34.4171 22.0449 33.9387 21.5664 33.9387 20.9783C33.9387 20.3903 34.4172 19.9118 35.0052 19.9118C35.5932 19.9118 36.0717 20.3903 36.0717 20.9783C36.0717 21.5664 35.5933 22.0449 35.0052 22.0449ZM44.0881 25.9885C44.0881 26.5766 43.6096 27.055 43.0215 27.055C42.4335 27.055 41.955 26.5765 41.955 25.9885C41.955 25.4003 42.4335 24.922 43.0215 24.922C43.6096 24.922 44.0881 25.4003 44.0881 25.9885ZM61.0583 9.01827C60.4701 9.01827 59.9918 8.53976 59.9918 7.95174C59.9918 7.3636 60.4703 6.88521 61.0583 6.88521C61.6463 6.88521 62.1248 7.36372 62.1248 7.95174C62.1249 8.53988 61.6464 9.01827 61.0583 9.01827Z" fill="#5A57EB"/>
</svg>
