<svg width="64" height="64" viewBox="0 0 64 64" fill="none" xmlns="http://www.w3.org/2000/svg">
<path d="M31.9998 51.976C43.0146 51.976 51.9757 43.0149 51.9757 32.0002C51.9757 20.9854 43.0146 12.0243 31.9998 12.0243C20.9851 12.0243 12.0239 20.9854 12.0239 32.0002C12.0239 43.0149 20.9851 51.976 31.9998 51.976ZM31.9998 13.8993C41.9807 13.8993 50.1007 22.0193 50.1007 32.0002C50.1007 41.981 41.9807 50.101 31.9998 50.101C22.0189 50.101 13.8989 41.981 13.8989 32.0002C13.8989 22.0193 22.0189 13.8993 31.9998 13.8993Z" fill="#5A57EB"/>
<path d="M63.9998 32C63.9998 30.0569 62.5868 28.4387 60.7347 28.116C60.0678 23.1404 58.1188 18.4324 55.0645 14.4291C55.5303 13.7696 55.7823 12.9849 55.7823 12.161C55.7823 11.1076 55.3722 10.1174 54.6273 9.3725C53.8825 8.62763 52.8922 8.2175 51.8388 8.2175C51.0149 8.2175 50.2302 8.4695 49.5707 8.93525C45.5673 5.88088 40.8594 3.932 35.8838 3.26513C35.5612 1.413 33.9429 0 31.9998 0C30.0567 0 28.4384 1.413 28.1158 3.26525C23.1403 3.93213 18.4323 5.881 14.4289 8.93525C13.7694 8.4695 12.9847 8.2175 12.1608 8.2175C11.1074 8.2175 10.1172 8.62763 9.37229 9.3725C8.62741 10.1173 8.21729 11.1076 8.21729 12.161C8.21729 13.2144 8.62741 14.2048 9.37229 14.9495C10.117 15.6944 11.1074 16.1046 12.1608 16.1046C13.2142 16.1046 14.2045 15.6944 14.9493 14.9495C15.6942 14.2048 16.1044 13.2144 16.1044 12.161C16.1044 11.5205 15.9519 10.9036 15.6655 10.3507C19.3549 7.5625 23.6762 5.773 28.2423 5.13975C28.7502 6.731 30.2423 7.88688 31.9998 7.88688C33.7573 7.88688 35.2494 6.731 35.7573 5.13975C40.3234 5.773 44.6447 7.5625 48.334 10.3507C48.0477 10.9036 47.8952 11.5204 47.8952 12.161C47.8952 13.2144 48.3054 14.2048 49.0503 14.9495C49.795 15.6944 50.7854 16.1046 51.8388 16.1046C52.4793 16.1046 53.0962 15.9521 53.649 15.6657C56.4372 19.3551 58.2268 23.6764 58.86 28.2425C57.2687 28.7504 56.1128 30.2425 56.1128 32C56.1128 33.7574 57.2684 35.2494 58.8594 35.7573C58.3807 39.2243 57.2504 42.518 55.4914 45.5588C55.2322 46.0069 55.3853 46.5804 55.8335 46.8397C55.9814 46.9252 56.1428 46.9659 56.3022 46.9659C56.6258 46.9659 56.9408 46.798 57.1145 46.4976C59.018 43.2071 60.2344 39.64 60.7358 35.8838C62.5874 35.5607 63.9998 33.9427 63.9998 32ZM13.6235 13.6237C13.2329 14.0144 12.7134 14.2296 12.1608 14.2296C11.6083 14.2296 11.0888 14.0144 10.6982 13.6237C10.3075 13.2331 10.0923 12.7136 10.0923 12.161C10.0923 11.6085 10.3074 11.089 10.6982 10.6984C11.0889 10.3077 11.6083 10.0925 12.1608 10.0925C12.7133 10.0925 13.2328 10.3076 13.6235 10.6984C14.0143 11.0891 14.2294 11.6085 14.2294 12.161C14.2294 12.7136 14.0143 13.2331 13.6235 13.6237ZM31.9998 6.01213C30.8592 6.01213 29.9313 5.08425 29.9313 3.94362C29.9313 2.803 30.8592 1.875 31.9998 1.875C33.1404 1.875 34.0683 2.80288 34.0683 3.9435C34.0683 5.08413 33.1404 6.01213 31.9998 6.01213ZM50.376 13.6237C49.9854 13.2331 49.7702 12.7136 49.7702 12.161C49.7702 11.6085 49.9854 11.089 50.376 10.6984C50.7667 10.3077 51.2862 10.0925 51.8388 10.0925C52.3913 10.0925 52.9108 10.3076 53.3014 10.6984C53.692 11.0891 53.9073 11.6085 53.9073 12.161C53.9073 12.7135 53.6922 13.233 53.3014 13.6237C52.9107 14.0145 52.3913 14.2296 51.8388 14.2296C51.2862 14.2296 50.7667 14.0145 50.376 13.6237ZM60.0563 34.0685C58.9157 34.0685 57.9878 33.1406 57.9878 32C57.9878 30.8594 58.9157 29.9315 60.0563 29.9315C61.1969 29.9315 62.1248 30.8594 62.1248 32C62.1248 33.1406 61.1969 34.0685 60.0563 34.0685Z" fill="#5A57EB"/>
<path d="M51.8389 47.8954C50.7855 47.8954 49.7951 48.3056 49.0504 49.0505C48.3055 49.7952 47.8952 50.7856 47.8952 51.839C47.8952 52.4795 48.0477 53.0964 48.3341 53.6492C44.6447 56.4375 40.3235 58.227 35.7574 58.8602C35.2495 57.2689 33.7574 56.113 31.9999 56.113C30.2424 56.113 28.7502 57.2689 28.2424 58.8602C23.6761 58.227 19.3549 56.4374 15.6656 53.6492C15.952 53.0964 16.1045 52.4795 16.1045 51.839C16.1045 50.7856 15.6942 49.7952 14.9494 49.0505C14.2046 48.3056 13.2142 47.8954 12.1609 47.8954C11.5204 47.8954 10.9035 48.0479 10.3506 48.3342C7.56237 44.6449 5.77287 40.3235 5.13962 35.7575C6.73087 35.2496 7.88675 33.7575 7.88675 32C7.88675 30.2426 6.731 28.7505 5.13987 28.2426C5.641 24.6117 6.854 21.1781 8.75387 18.025C9.02112 17.5815 8.87825 17.0054 8.43475 16.7382C7.99137 16.4709 7.41512 16.6139 7.148 17.0574C5.09312 20.4677 3.78825 24.1845 3.26375 28.1162C1.41237 28.4394 0 30.0574 0 32C0 33.9431 1.413 35.5614 3.26525 35.884C3.93212 40.8595 5.881 45.5675 8.93537 49.5709C8.46962 50.2304 8.21762 51.0151 8.21762 51.839C8.21762 52.8924 8.62775 53.8826 9.37262 54.6275C10.1174 55.3724 11.1077 55.7825 12.1611 55.7825C12.985 55.7825 13.7697 55.5305 14.4292 55.0647C18.4325 58.1191 23.1405 60.068 28.1161 60.7349C28.4387 62.587 30.0569 64 32 64C33.9434 64 35.5617 62.5867 35.8841 60.7341C40.8597 60.0674 45.5677 58.119 49.571 55.0647C50.2305 55.5305 51.0151 55.7824 51.839 55.7824C52.8924 55.7824 53.8826 55.3722 54.6275 54.6274C55.3724 53.8826 55.7825 52.8922 55.7825 51.8389C55.7825 50.7855 55.3724 49.7951 54.6275 49.0504C53.8826 48.3055 52.8922 47.8954 51.8389 47.8954ZM1.875 32C1.875 30.8594 2.80287 29.9315 3.9435 29.9315C5.08412 29.9315 6.01212 30.8594 6.01212 32C6.01212 33.1406 5.08425 34.0685 3.94362 34.0685C2.803 34.0685 1.875 33.1406 1.875 32ZM12.1611 53.9074C11.6086 53.9074 11.0891 53.6922 10.6985 53.3015C10.3079 52.9107 10.0926 52.3914 10.0926 51.8389C10.0926 51.2864 10.3077 50.7669 10.6985 50.3761C11.0892 49.9854 11.6086 49.7702 12.1611 49.7702C12.7136 49.7702 13.2331 49.9855 13.6239 50.3761C14.0146 50.7667 14.2297 51.2862 14.2297 51.8389C14.2297 52.3914 14.0145 52.9109 13.6239 53.3015C13.2332 53.6921 12.7136 53.9074 12.1611 53.9074ZM32 62.125C30.8594 62.125 29.9315 61.1971 29.9315 60.0565C29.9315 58.9159 30.8594 57.988 32 57.988C33.1406 57.988 34.0685 58.9159 34.0685 60.0565C34.0685 61.1971 33.1406 62.125 32 62.125ZM53.3016 53.3016C52.911 53.6922 52.3915 53.9075 51.839 53.9075C51.2865 53.9075 50.767 53.6924 50.3762 53.3016C49.9855 52.9109 49.7704 52.3915 49.7704 51.839C49.7704 51.2865 49.9856 50.767 50.3762 50.3762C50.7669 49.9855 51.2864 49.7704 51.839 49.7704C52.3915 49.7704 52.911 49.9856 53.3016 50.3762C53.6922 50.7669 53.9075 51.2864 53.9075 51.839C53.9074 52.3914 53.6922 52.9109 53.3016 53.3016Z" fill="#5A57EB"/>
<path d="M20.0606 42.043C20.2591 42.043 20.4592 41.9803 20.6292 41.8503C21.0406 41.5358 21.1191 40.9474 20.8047 40.5362C16.5391 34.9553 17.0679 27.0014 22.0345 22.0348C27.001 17.0682 34.9549 16.5393 40.5359 20.805C40.9471 21.1194 41.5355 21.0409 41.85 20.6295C42.1644 20.2182 42.0858 19.6298 41.6744 19.3153C38.6271 16.9862 34.8326 15.8343 30.9915 16.0709C27.112 16.3103 23.4602 17.9574 20.7086 20.7089C17.9571 23.4604 16.31 27.1123 16.0706 30.9917C15.8336 34.8333 16.9857 38.6273 19.315 41.6747C19.4997 41.9163 19.7785 42.043 20.0606 42.043Z" fill="#5A57EB"/>
<path d="M41.9649 41.9652C36.9983 46.9317 29.0444 47.4606 23.4636 43.1949C23.0524 42.8807 22.4639 42.9592 22.1494 43.3704C21.8351 43.7818 21.9137 44.3702 22.3251 44.6847C25.1107 46.8138 28.5203 47.9594 32.0198 47.9594C32.3486 47.9594 32.6782 47.9493 33.0081 47.9289C36.8876 47.6896 40.5393 46.0424 43.2908 43.2909C46.0423 40.5394 47.6894 36.8876 47.9288 33.0081C48.1658 29.1664 47.0137 25.3726 44.6844 22.3252C44.3699 21.9138 43.7817 21.8352 43.3702 22.1496C42.9588 22.4641 42.8803 23.0524 43.1947 23.4637C47.4603 29.0446 46.9316 36.9984 41.9649 41.9652Z" fill="#5A57EB"/>
<path d="M25.3599 39.9108L34.5709 34.9511C34.7324 34.8641 34.8649 34.7317 34.9519 34.5701L39.9116 25.3591C40.1079 24.9946 40.0419 24.5444 39.7491 24.2517C39.4564 23.9589 39.0062 23.8928 38.6417 24.0892L29.4307 29.0489C29.2692 29.1359 29.1367 29.2683 29.0497 29.4299L24.09 38.6409C23.8937 39.0054 23.9597 39.4556 24.2525 39.7483C24.4327 39.9286 24.6727 40.0229 24.9157 40.0229C25.0672 40.0229 25.2199 39.9862 25.3599 39.9108ZM33.8982 32.5718L31.4289 30.1026L36.779 27.2218L33.8982 32.5718ZM30.1032 31.4283L32.5726 33.8976L27.2225 36.7783L30.1032 31.4283Z" fill="#5A57EB"/>
</svg>
