<svg width="64" height="64" viewBox="0 0 64 64" fill="none" xmlns="http://www.w3.org/2000/svg">
<g clip-path="url(#clip0)">
<path d="M57.0496 37.9474C57.5673 37.9474 57.9871 37.5277 57.9871 37.0099V35.0061C57.9871 33.3841 56.6675 32.0646 55.0456 32.0646H35.0052C33.3832 32.0646 32.0637 33.3842 32.0637 35.0061V61.0584C32.0637 62.6804 33.3833 63.9999 35.0052 63.9999H55.0455C56.6675 63.9999 57.987 62.6803 57.987 61.0584V41.0178C57.987 40.5001 57.5672 40.0803 57.0495 40.0803C56.5317 40.0803 56.112 40.5001 56.112 41.0178V42.0847H52.9768V37.9474C52.9768 36.9137 52.1357 36.0726 51.102 36.0726H38.9483C37.9146 36.0726 37.0735 36.9137 37.0735 37.9474V42.0847H33.9383V35.0061C33.9383 34.418 34.4168 33.9396 35.0048 33.9396H55.0451C55.6332 33.9396 56.1116 34.4181 56.1116 35.0061V37.0099C56.1121 37.5277 56.5318 37.9474 57.0496 37.9474ZM38.9486 37.9476L51.102 37.9474V42.0847H38.9487L38.9486 37.9476ZM56.1121 43.9597V61.0584C56.1121 61.6466 55.6336 62.1249 55.0456 62.1249H35.0052C34.4171 62.1249 33.9387 61.6464 33.9387 61.0584V43.9597H56.1121Z" fill="#5A57EB"/>
<path d="M28.9937 52.1049H7.95122C7.91559 52.1049 7.88672 52.076 7.88672 52.0404V10.8933H15.9673C16.4851 10.8933 16.9048 10.4735 16.9048 9.95575V1.87513L45.0257 1.875C45.0613 1.875 45.0902 1.90387 45.0902 1.9395V28.994C45.0902 29.5117 45.51 29.9315 46.0277 29.9315C46.5455 29.9315 46.9652 29.5117 46.9652 28.994V1.9395C46.9653 0.87 46.0952 0 45.0257 0L15.9675 0.000125C15.7188 0.000125 15.4803 0.098875 15.3046 0.27475L6.28634 9.293C6.11047 9.46875 6.01172 9.70725 6.01172 9.95588V52.0402C6.01172 53.1097 6.88172 53.9798 7.95122 53.9798H28.9937C29.5115 53.9798 29.9312 53.56 29.9312 53.0423C29.9312 52.5245 29.5115 52.1049 28.9937 52.1049ZM9.21272 9.01825L15.0298 3.201V9.01825H9.21272Z" fill="#5A57EB"/>
<path d="M38.0117 47.9678H40.0157C40.5335 47.9678 40.9532 47.548 40.9532 47.0303C40.9532 46.5125 40.5335 46.0928 40.0157 46.0928H38.0117C37.494 46.0928 37.0742 46.5125 37.0742 47.0303C37.0742 47.548 37.494 47.9678 38.0117 47.9678Z" fill="#5A57EB"/>
<path d="M38.0117 55.9839H40.0157C40.5335 55.9839 40.9532 55.5641 40.9532 55.0464C40.9532 54.5286 40.5335 54.1089 40.0157 54.1089H38.0117C37.494 54.1089 37.0742 54.5286 37.0742 55.0464C37.0742 55.5641 37.494 55.9839 38.0117 55.9839Z" fill="#5A57EB"/>
<path d="M38.0117 59.9921H40.0157C40.5335 59.9921 40.9532 59.5723 40.9532 59.0546C40.9532 58.5368 40.5335 58.1171 40.0157 58.1171H38.0117C37.494 58.1171 37.0742 58.5368 37.0742 59.0546C37.0742 59.5723 37.494 59.9921 38.0117 59.9921Z" fill="#5A57EB"/>
<path d="M38.0117 51.9757H40.0157C40.5335 51.9757 40.9532 51.556 40.9532 51.0382C40.9532 50.5205 40.5335 50.1007 40.0157 50.1007H38.0117C37.494 50.1007 37.0742 50.5205 37.0742 51.0382C37.0742 51.556 37.494 51.9757 38.0117 51.9757Z" fill="#5A57EB"/>
<path d="M44.0239 47.9678H46.0279C46.5457 47.9678 46.9654 47.548 46.9654 47.0303C46.9654 46.5125 46.5457 46.0928 46.0279 46.0928H44.0239C43.5062 46.0928 43.0864 46.5125 43.0864 47.0303C43.0864 47.548 43.5062 47.9678 44.0239 47.9678Z" fill="#5A57EB"/>
<path d="M44.0239 55.9839H46.0279C46.5457 55.9839 46.9654 55.5641 46.9654 55.0464C46.9654 54.5286 46.5457 54.1089 46.0279 54.1089H44.0239C43.5062 54.1089 43.0864 54.5286 43.0864 55.0464C43.0864 55.5641 43.5062 55.9839 44.0239 55.9839Z" fill="#5A57EB"/>
<path d="M44.0239 59.9921H46.0279C46.5457 59.9921 46.9654 59.5723 46.9654 59.0546C46.9654 58.5368 46.5457 58.1171 46.0279 58.1171H44.0239C43.5062 58.1171 43.0864 58.5368 43.0864 59.0546C43.0864 59.5723 43.5062 59.9921 44.0239 59.9921Z" fill="#5A57EB"/>
<path d="M44.0239 51.9757H46.0279C46.5457 51.9757 46.9654 51.556 46.9654 51.0382C46.9654 50.5205 46.5457 50.1007 46.0279 50.1007H44.0239C43.5062 50.1007 43.0864 50.5205 43.0864 51.0382C43.0864 51.556 43.5062 51.9757 44.0239 51.9757Z" fill="#5A57EB"/>
<path d="M50.0356 47.9678H52.0396C52.5574 47.9678 52.9771 47.548 52.9771 47.0303C52.9771 46.5125 52.5574 46.0928 52.0396 46.0928H50.0356C49.5179 46.0928 49.0981 46.5125 49.0981 47.0303C49.0981 47.548 49.5179 47.9678 50.0356 47.9678Z" fill="#5A57EB"/>
<path d="M50.0356 55.9839H52.0396C52.5574 55.9839 52.9771 55.5641 52.9771 55.0464C52.9771 54.5286 52.5574 54.1089 52.0396 54.1089H50.0356C49.5179 54.1089 49.0981 54.5286 49.0981 55.0464C49.0981 55.5641 49.5179 55.9839 50.0356 55.9839Z" fill="#5A57EB"/>
<path d="M50.0356 59.9921H52.0396C52.5574 59.9921 52.9771 59.5723 52.9771 59.0546C52.9771 58.5368 52.5574 58.1171 52.0396 58.1171H50.0356C49.5179 58.1171 49.0981 58.5368 49.0981 59.0546C49.0981 59.5723 49.5179 59.9921 50.0356 59.9921Z" fill="#5A57EB"/>
<path d="M50.0356 51.9757H52.0396C52.5574 51.9757 52.9771 51.556 52.9771 51.0382C52.9771 50.5205 52.5574 50.1007 52.0396 50.1007H50.0356C49.5179 50.1007 49.0981 50.5205 49.0981 51.0382C49.0981 51.556 49.5179 51.9757 50.0356 51.9757Z" fill="#5A57EB"/>
<path d="M19.9759 33.9396C20.8884 33.9396 21.7652 34.1366 22.5822 34.525C23.0499 34.7473 23.609 34.5485 23.8314 34.081C24.0538 33.6133 23.8549 33.0541 23.3874 32.8317C22.317 32.3227 21.1693 32.0646 19.976 32.0646C15.5915 32.0646 12.0244 35.6317 12.0244 40.0162C12.0244 44.4007 15.5915 47.9678 19.976 47.9678C24.3605 47.9678 27.9277 44.4007 27.9277 40.0162C27.9277 38.5706 27.5355 37.1548 26.7938 35.9221C26.5269 35.4785 25.951 35.3351 25.5072 35.6021C25.0635 35.8689 24.9203 36.4451 25.1872 36.8887C25.7533 37.8297 26.0525 38.9111 26.0525 40.0162C26.0525 41.3539 25.617 42.5913 24.8818 43.5962L23.3468 42.0612C23.71 41.4646 23.9195 40.7644 23.9195 40.0162C23.9195 37.8417 22.1505 36.0727 19.976 36.0727C18.1245 36.0727 16.5679 37.3554 16.146 39.0787H13.972C14.4239 36.1716 16.944 33.9396 19.9759 33.9396ZM13.9718 40.9536H16.1458C16.5677 42.6768 18.1244 43.9596 19.9758 43.9596C20.7239 43.9596 21.4242 43.7501 22.0208 43.3868L23.5558 44.9218C22.5509 45.6571 21.3135 46.0926 19.9758 46.0926C16.944 46.0927 14.4239 43.8607 13.9718 40.9536ZM19.9759 37.9476C21.1165 37.9476 22.0444 38.8754 22.0444 40.0161C22.0444 41.1567 21.1165 42.0846 19.9759 42.0846C18.8353 42.0846 17.9074 41.1567 17.9074 40.0161C17.9074 38.8754 18.8353 37.9476 19.9759 37.9476Z" fill="#5A57EB"/>
<path d="M40.0156 27.9274C40.5333 27.9274 40.9531 27.5077 40.9531 26.9899C40.9531 26.4722 40.5333 26.0524 40.0156 26.0524H38.9491V8.95378C38.9491 7.88428 38.0791 7.01428 37.0096 7.01428H34.0035C32.934 7.01428 32.0641 7.88428 32.0641 8.95378V26.0524H29.9311V14.9658C29.9311 13.8963 29.0611 13.0263 27.9915 13.0263H24.9856C23.916 13.0263 23.046 13.8963 23.046 14.9658V26.0524H20.913V20.9779C20.913 19.9084 20.043 19.0384 18.9735 19.0384H15.9675C14.898 19.0384 14.028 19.9084 14.028 20.9779V26.0525H12.9615C12.4438 26.0525 12.024 26.4723 12.024 26.99C12.024 27.5078 12.4438 27.9275 12.9615 27.9275L40.0156 27.9274ZM33.9389 8.95378C33.9389 8.91816 33.9678 8.88928 34.0034 8.88928H37.0094C37.045 8.88928 37.0739 8.91816 37.0739 8.95378V26.0524H33.9388V8.95378H33.9389ZM24.9208 14.9659C24.9208 14.9303 24.9497 14.9014 24.9853 14.9014H27.9913C28.0269 14.9014 28.0558 14.9303 28.0558 14.9659V26.0525H24.9207V14.9659H24.9208ZM15.9027 20.9779C15.9027 20.9423 15.9315 20.9134 15.9672 20.9134H18.9732C19.0088 20.9134 19.0377 20.9423 19.0377 20.9779V26.0524H15.9025V20.9779H15.9027Z" fill="#5A57EB"/>
</g>
<defs>
<clipPath id="clip0">
<rect width="64" height="64" fill="white"/>
</clipPath>
</defs>
</svg>
