<svg width="64" height="64" viewBox="0 0 64 64" fill="none" xmlns="http://www.w3.org/2000/svg">
<g clip-path="url(#clip0)">
<path d="M31.9996 17.032C27.0626 17.032 23.046 21.0486 23.046 25.9856C23.046 28.014 23.7433 30.0012 25.0094 31.5811C25.1945 31.8122 25.4668 31.9325 25.7415 31.9325C25.9471 31.9325 26.1543 31.8651 26.3271 31.7265C26.7311 31.4027 26.7963 30.8127 26.4725 30.4087C25.4575 29.1421 24.921 27.6126 24.921 25.9857C24.921 22.0826 28.0965 18.9071 31.9996 18.9071C34.5186 18.9071 36.8683 20.2634 38.1315 22.4465C38.3909 22.8947 38.9645 23.0477 39.4125 22.7885C39.8606 22.5292 40.0138 21.9556 39.7545 21.5075C38.1571 18.7469 35.1858 17.032 31.9996 17.032Z" fill="#5A57EB"/>
<path d="M63.2898 25.076L53.2696 22.5709C52.5855 22.4951 52.1973 22.7983 52.1048 23.4804V25.048H49.9468C49.6914 20.1351 47.437 15.5383 43.6723 12.3198C39.6718 8.89976 34.3553 7.41414 29.0856 8.24364C20.6518 9.57139 14.4766 16.554 14.0525 25.0481H11.3459L8.6144 22.3166C8.43865 22.1408 8.20014 22.042 7.95152 22.042H0.937395C0.558145 22.042 0.216395 22.2704 0.0712701 22.6208C-0.0738549 22.9711 0.00639507 23.3743 0.27452 23.6424L2.61765 25.9855L0.27452 28.3286C0.00639507 28.5968 -0.0738549 29 0.0712701 29.3503C0.216395 29.7006 0.55827 29.929 0.937395 29.929H7.95152C8.20014 29.929 8.43865 29.8303 8.6144 29.6544L11.3459 26.9229H14.0545C14.3771 33.1879 17.8916 37.9031 21.606 42.882C24.0663 46.1799 26.6104 49.5901 28.431 53.694C29.0475 55.0835 30.4283 55.9815 31.9486 55.9815H31.9983C33.5243 55.9815 34.9089 55.0836 35.5259 53.6941C37.3496 49.5864 39.904 46.1733 42.3743 42.8725C46.0976 37.8974 49.6216 33.184 49.9451 26.9228H52.1049V28.4903C52.1049 29.0791 52.7301 29.5348 53.2698 29.3998L63.2899 26.8948C63.7073 26.7905 64 26.4155 64 25.9853C64 25.555 63.7071 25.1803 63.2898 25.076ZM7.56327 28.054H3.20077L4.6064 26.6484C4.97252 26.2823 4.97252 25.6886 4.6064 25.3226L3.20077 23.917H7.56327L9.63177 25.9855L7.56327 28.054ZM40.873 41.7493C38.3405 45.1331 35.7218 48.6323 33.8121 52.9334C33.4956 53.6461 32.7836 54.1066 31.9983 54.1066H31.9486C31.1689 54.1066 30.4609 53.6461 30.1448 52.9338C28.2389 48.6376 25.6309 45.1418 23.1088 41.761C19.262 36.6046 15.9398 32.1513 15.9034 26.0845C15.8553 18.0566 21.5219 11.3324 29.3773 10.0958C34.1043 9.35176 38.8705 10.6818 42.4538 13.745C45.8011 16.6066 47.8154 20.6845 48.0688 25.048H44.9274C44.4454 18.3369 38.8316 13.0239 31.9999 13.0239C24.8528 13.0239 19.0383 18.8385 19.0383 25.9855C19.0383 33.1325 24.8528 38.9473 31.9999 38.9473C38.8318 38.9473 44.4454 33.6341 44.9274 26.923H48.0679C47.7458 32.562 44.548 36.8388 40.873 41.7493ZM36.8551 25.048C36.4156 22.7679 34.4063 21.04 31.9999 21.04C29.2729 21.04 27.0544 23.2586 27.0544 25.9855C27.0544 28.7124 29.273 30.931 31.9999 30.931C34.4063 30.931 36.4158 29.203 36.8551 26.923H39.0145C38.5541 30.3844 35.585 33.0641 31.9999 33.0641C31.0811 33.0641 30.1876 32.891 29.3443 32.5494C28.8648 32.355 28.3178 32.5866 28.1234 33.0664C27.929 33.5463 28.1605 34.0929 28.6405 34.2873C29.7085 34.7198 30.8386 34.939 31.9999 34.939C36.6203 34.939 40.434 31.4209 40.9043 26.9229H43.0466C42.569 32.599 37.7974 37.0721 32 37.0721C25.8868 37.0721 20.9134 32.0986 20.9134 25.9854C20.9134 19.8721 25.8866 14.8988 31.9999 14.8988C37.7973 14.8988 42.5689 19.3719 43.0465 25.0479H36.8551V25.048ZM31.9999 26.923H34.9235C34.5263 28.1589 33.366 29.056 31.9999 29.056C30.3068 29.056 28.9294 27.6785 28.9294 25.9855C28.9294 24.2925 30.3069 22.915 31.9999 22.915C33.3661 22.915 34.5263 23.8121 34.9235 25.048H31.9999C31.4821 25.048 31.0624 25.4678 31.0624 25.9855C31.0624 26.5033 31.4821 26.923 31.9999 26.923ZM53.9798 27.2898V24.6811L59.197 25.9855L53.9798 27.2898Z" fill="#5A57EB"/>
</g>
<defs>
<clipPath id="clip0">
<rect width="64" height="64" fill="white"/>
</clipPath>
</defs>
</svg>
