<svg width="64" height="64" viewBox="0 0 64 64" fill="none" xmlns="http://www.w3.org/2000/svg">
<g clip-path="url(#clip0)">
<path d="M63.0625 56.1129H58.9899V21.9799C58.9899 19.8054 57.2209 18.0364 55.0464 18.0364H43.0226C42.5049 18.0364 42.0851 18.4561 42.0851 18.9739C42.0851 19.4916 42.5049 19.9114 43.0226 19.9114H55.0464C56.187 19.9114 57.1149 20.8394 57.1149 21.9799V56.113H53.906C53.9544 55.759 53.9798 55.4028 53.9798 55.0465C53.9798 50.662 50.4126 47.0949 46.0281 47.0949C45.4386 47.0949 44.85 47.1623 44.2697 47.2956C43.2582 45.3466 41.2434 44.0888 39.0141 44.0888C38.2869 44.0888 37.5805 44.2214 36.9155 44.479C36.6424 42.0085 34.5421 40.0806 32 40.0806C29.4579 40.0806 27.3576 42.0085 27.0845 44.479C26.4195 44.2214 25.7131 44.0888 24.9859 44.0888C22.7566 44.0888 20.7416 45.3466 19.7302 47.2956C19.1499 47.1621 18.5614 47.0949 17.9719 47.0949C13.5872 47.0949 10.0203 50.662 10.0203 55.0465C10.0203 55.4029 10.0456 55.759 10.094 56.113H6.88513V21.9799C6.88513 20.8393 7.813 19.9114 8.95362 19.9114H20.9778C21.4955 19.9114 21.9153 19.4916 21.9153 18.9739C21.9153 18.4561 21.4955 18.0364 20.9778 18.0364H8.95362C6.77912 18.0364 5.01013 19.8055 5.01013 21.9799V56.113H0.9375C0.41975 56.113 0 56.5327 0 57.0505V59.0545C0 60.6765 1.31962 61.996 2.9415 61.996H61.0585C62.6805 61.996 64 60.6764 64 59.0545V57.0505C64 56.5326 63.5802 56.1129 63.0625 56.1129ZM62.125 59.0545C62.125 59.6426 61.6465 60.121 61.0585 60.121H2.9415C2.35337 60.121 1.875 59.6425 1.875 59.0545V57.988H13.9634C14.4811 57.988 14.9009 57.5682 14.9009 57.0505C14.9009 56.5327 14.4811 56.113 13.9634 56.113H11.9911C11.9275 55.7596 11.8951 55.4029 11.8951 55.0465C11.8951 51.6959 14.6211 48.9699 17.9718 48.9699C18.6391 48.9699 19.3074 49.0841 19.958 49.3094C20.1936 49.391 20.4519 49.3754 20.676 49.2661C20.9 49.1568 21.0713 48.9628 21.152 48.7269C21.7171 47.0743 23.2579 45.9639 24.986 45.9639C25.9336 45.9639 26.8336 46.2993 27.5889 46.9339C27.9077 47.2018 28.365 47.2273 28.7116 46.9964C29.0582 46.7655 29.211 46.3338 29.0868 45.9364C28.9795 45.5931 28.9295 45.304 28.9295 45.0264C28.9295 43.3333 30.307 41.9559 32 41.9559C33.693 41.9559 35.0705 43.3334 35.0705 45.0264C35.0705 45.304 35.0205 45.5931 34.9132 45.9364C34.789 46.3339 34.9419 46.7656 35.2884 46.9964C35.635 47.2271 36.0923 47.2018 36.4111 46.9339C37.1664 46.2994 38.0665 45.9639 39.014 45.9639C40.7421 45.9639 42.2829 47.0743 42.848 48.7269C42.9287 48.9628 43.1 49.1568 43.324 49.2661C43.5481 49.3755 43.8065 49.3911 44.042 49.3094C44.6926 49.0841 45.3608 48.9699 46.0283 48.9699C49.379 48.9699 52.1049 51.6959 52.1049 55.0465C52.1049 55.4029 52.0724 55.7596 52.0089 56.113H17.9721C17.4544 56.113 17.0346 56.5327 17.0346 57.0505C17.0346 57.5682 17.4544 57.988 17.9721 57.988H62.125V59.0545Z" fill="#5A57EB"/>
<path d="M19.9526 29.5617C19.3632 30.2689 19.0386 31.1655 19.0386 32.0863V35.006C19.0386 35.3393 19.2156 35.6475 19.5033 35.8157C19.6493 35.9009 19.8127 35.9435 19.9761 35.9435C20.1349 35.9435 20.2938 35.9033 20.4368 35.8225L27.1131 32.0554C27.3674 32.5199 27.6372 32.9769 27.9221 33.4255L27.0828 36.7827C27.0127 37.0628 27.0757 37.3594 27.2533 37.587C27.4309 37.8147 27.7036 37.9477 27.9923 37.9477H36.0085C36.2972 37.9477 36.5697 37.8147 36.7474 37.587C36.9251 37.3595 36.9881 37.0628 36.918 36.7827L36.0787 33.4255C36.3636 32.9769 36.6333 32.52 36.8877 32.0554L43.564 35.8225C43.7071 35.9033 43.8658 35.9435 44.0247 35.9435C44.1881 35.9435 44.3515 35.9008 44.4975 35.8157C44.7852 35.6477 44.9622 35.3394 44.9622 35.006V32.0863C44.9622 31.1655 44.6376 30.2689 44.0482 29.5617L39.5977 24.2228C39.8321 22.8302 39.9521 21.4103 39.9521 19.9758C39.9521 16.5569 39.2902 13.2522 37.9848 10.1535C36.7258 7.16503 34.9337 4.51378 32.6582 2.2734C32.2933 1.91415 31.7077 1.91415 31.3428 2.2734C29.0673 4.51365 27.2752 7.1649 26.0162 10.1535C24.7108 13.2523 24.0489 16.5569 24.0489 19.9758C24.0489 21.408 24.1686 22.8258 24.4022 24.2163L19.9526 29.5617ZM20.9136 33.4005V32.0863C20.9136 31.6033 21.0838 31.133 21.3929 30.762L24.9069 26.5453C25.2581 27.8588 25.7144 29.1398 26.2739 30.376L20.9136 33.4005ZM29.193 36.0725L29.7262 33.9395H34.2743L34.8076 36.0725H29.193ZM42.6075 30.762C42.9166 31.133 43.0868 31.6033 43.0868 32.0863V33.4005L37.7264 30.3759C38.2858 29.1397 38.7423 27.8588 39.0935 26.5452L42.6075 30.762ZM32.0002 4.28615C33.5746 5.97853 34.8731 7.91903 35.8599 10.0202H28.1404C29.1273 7.91903 30.4258 5.97853 32.0002 4.28615ZM27.3592 11.895H36.6411C37.5785 14.4507 38.0767 17.1905 38.0767 19.9757C38.0767 24.2867 36.9169 28.4548 34.7177 32.0644H29.2826C27.0833 28.4548 25.9236 24.2867 25.9236 19.9757C25.9236 17.1905 26.4219 14.4508 27.3592 11.895Z" fill="#5A57EB"/>
<path d="M35.9441 18.9737C35.9441 16.7992 34.1751 15.0302 32.0006 15.0302C29.8261 15.0302 28.0571 16.7993 28.0571 18.9737C28.0571 21.1481 29.8261 22.9172 32.0006 22.9172C34.1751 22.9172 35.9441 21.1482 35.9441 18.9737ZM29.9321 18.9737C29.9321 17.8331 30.86 16.9052 32.0006 16.9052C33.1413 16.9052 34.0691 17.8332 34.0691 18.9737C34.0691 20.1142 33.1413 21.0422 32.0006 21.0422C30.86 21.0422 29.9321 20.1143 29.9321 18.9737Z" fill="#5A57EB"/>
</g>
<defs>
<clipPath id="clip0">
<rect width="64" height="64" fill="white"/>
</clipPath>
</defs>
</svg>
