<svg width="855" height="99" viewBox="0 0 855 99" fill="none" xmlns="http://www.w3.org/2000/svg">
<g opacity="0.2">
<rect width="13" height="19.8993" transform="matrix(-1 0 0 1 857 56.1006)" fill="#3C3CA3"/>
<rect x="305" y="66.8923" width="13" height="9.10775" fill="#3C3CA3"/>
<rect width="13" height="26.5579" transform="matrix(-1 0 0 1 716 49.4421)" fill="#3C3CA3"/>
<rect x="446" y="63.9075" width="13" height="12.0926" fill="#3C3CA3"/>
<rect x="193" y="65.9739" width="13" height="10.0262" fill="#3C3CA3"/>
<rect width="13" height="27.859" transform="matrix(-1 0 0 1 828 48.1409)" fill="#3C3CA3"/>
<rect x="334" y="63.2952" width="13" height="12.7049" fill="#3C3CA3"/>
<rect width="13" height="50.3605" transform="matrix(-1 0 0 1 687 25.6394)" fill="#3C3CA3"/>
<rect x="475" y="53.0393" width="13" height="22.9607" fill="#3C3CA3"/>
<rect x="221" y="69.418" width="13" height="6.58207" fill="#3C3CA3"/>
<rect width="13" height="24.721" transform="matrix(-1 0 0 1 800 51.2791)" fill="#3C3CA3"/>
<rect x="362" y="64.7493" width="13" height="11.2508" fill="#3C3CA3"/>
<rect width="13" height="32.9869" transform="matrix(-1 0 0 1 659 43.0132)" fill="#3C3CA3"/>
<rect x="503" y="60.9224" width="13" height="15.0775" fill="#3C3CA3"/>
<rect x="249" y="62.8359" width="13" height="13.1641" fill="#3C3CA3"/>
<rect width="13" height="37.7321" transform="matrix(-1 0 0 1 772 38.2678)" fill="#3C3CA3"/>
<rect x="390" y="58.7795" width="13" height="17.2205" fill="#3C3CA3"/>
<rect width="13" height="66.1269" transform="matrix(-1 0 0 1 631 9.87305)" fill="#3C3CA3"/>
<rect x="531" y="45.845" width="13" height="30.1551" fill="#3C3CA3"/>
<rect x="277" y="60.8459" width="13" height="15.1541" fill="#3C3CA3"/>
<rect width="13" height="35.283" transform="matrix(-1 0 0 1 744 40.717)" fill="#3C3CA3"/>
<rect x="418" y="59.9275" width="13" height="16.0725" fill="#3C3CA3"/>
<rect width="13" height="76" transform="matrix(-1 0 0 1 603 0)" fill="#3C3CA3"/>
<rect x="559" y="41.3293" width="13" height="34.6707" fill="#3C3CA3"/>
</g>
<g opacity="0.2">
<rect width="13" height="2.7563" transform="matrix(1 8.74228e-08 8.74228e-08 -1 318 78.7563)" fill="#DA035D"/>
<rect x="729" y="84.0374" width="13" height="8.03727" transform="rotate(-180 729 84.0374)" fill="#DA035D"/>
<rect width="13" height="3.65962" transform="matrix(1 8.74228e-08 8.74228e-08 -1 459 79.6597)" fill="#DA035D"/>
<rect width="13" height="3.03424" transform="matrix(1 8.74228e-08 8.74228e-08 -1 206 79.0342)" fill="#DA035D"/>
<rect x="841" y="84.4309" width="13" height="8.43103" transform="rotate(-180 841 84.4309)" fill="#DA035D"/>
<rect width="13" height="3.84492" transform="matrix(1 8.74228e-08 8.74228e-08 -1 347 79.845)" fill="#DA035D"/>
<rect x="700" y="91.2407" width="13" height="15.2407" transform="rotate(-180 700 91.2407)" fill="#DA035D"/>
<rect width="13" height="6.94865" transform="matrix(1 8.74228e-08 8.74228e-08 -1 488 82.9487)" fill="#DA035D"/>
<rect width="13" height="1.99195" transform="matrix(1 8.74228e-08 8.74228e-08 -1 234 77.9919)" fill="#DA035D"/>
<rect x="813" y="83.4814" width="13" height="7.48138" transform="rotate(-180 813 83.4814)" fill="#DA035D"/>
<rect width="13" height="3.40484" transform="matrix(1 8.74228e-08 8.74228e-08 -1 375 79.4048)" fill="#DA035D"/>
<rect x="672" y="85.9829" width="13" height="9.9829" transform="rotate(-180 672 85.9829)" fill="#DA035D"/>
<rect width="13" height="4.56295" transform="matrix(1 8.74228e-08 8.74228e-08 -1 516 80.563)" fill="#DA035D"/>
<rect width="13" height="3.98389" transform="matrix(1 8.74228e-08 8.74228e-08 -1 262 79.9839)" fill="#DA035D"/>
<rect x="785" y="87.4189" width="13" height="11.419" transform="rotate(-180 785 87.4189)" fill="#DA035D"/>
<rect width="13" height="5.21149" transform="matrix(1 8.74228e-08 8.74228e-08 -1 403 81.2114)" fill="#DA035D"/>
<rect x="644" y="96.0122" width="13" height="20.0121" transform="rotate(-180 644 96.0122)" fill="#DA035D"/>
<rect width="13" height="9.1259" transform="matrix(1 8.74228e-08 8.74228e-08 -1 544 85.1257)" fill="#DA035D"/>
<rect width="13" height="4.58611" transform="matrix(1 8.74228e-08 8.74228e-08 -1 290 80.5859)" fill="#DA035D"/>
<rect x="757" y="86.6777" width="13" height="10.6778" transform="rotate(-180 757 86.6777)" fill="#DA035D"/>
<rect width="13" height="4.86406" transform="matrix(1 8.74228e-08 8.74228e-08 -1 431 80.864)" fill="#DA035D"/>
<rect x="616" y="99" width="13" height="23" transform="rotate(-180 616 99)" fill="#DA035D"/>
<rect width="13" height="10.4925" transform="matrix(1 8.74228e-08 8.74228e-08 -1 572 86.4924)" fill="#DA035D"/>
</g>
<path opacity="0.2" d="M1017 76H0" stroke="#1E1E8B"/>
</svg>
