<svg width="855" height="99" viewBox="0 0 855 99" fill="none" xmlns="http://www.w3.org/2000/svg">
<g opacity="0.2">
<rect x="-2" y="56.1006" width="13" height="19.8993" fill="#3C3CA3"/>
<rect width="13" height="9.10775" transform="matrix(-1 0 0 1 550 66.8923)" fill="#3C3CA3"/>
<rect x="139" y="49.4421" width="13" height="26.5579" fill="#3C3CA3"/>
<rect width="13" height="12.0926" transform="matrix(-1 0 0 1 409 63.9075)" fill="#3C3CA3"/>
<rect width="13" height="10.0262" transform="matrix(-1 0 0 1 662 65.9739)" fill="#3C3CA3"/>
<rect x="27" y="48.1409" width="13" height="27.859" fill="#3C3CA3"/>
<rect width="13" height="12.7049" transform="matrix(-1 0 0 1 521 63.2952)" fill="#3C3CA3"/>
<rect x="168" y="25.6394" width="13" height="50.3605" fill="#3C3CA3"/>
<rect width="13" height="22.9607" transform="matrix(-1 0 0 1 380 53.0393)" fill="#3C3CA3"/>
<rect width="13" height="6.58207" transform="matrix(-1 0 0 1 634 69.418)" fill="#3C3CA3"/>
<rect x="55" y="51.2791" width="13" height="24.721" fill="#3C3CA3"/>
<rect width="13" height="11.2508" transform="matrix(-1 0 0 1 493 64.7493)" fill="#3C3CA3"/>
<rect x="196" y="43.0132" width="13" height="32.9869" fill="#3C3CA3"/>
<rect width="13" height="15.0775" transform="matrix(-1 0 0 1 352 60.9224)" fill="#3C3CA3"/>
<rect width="13" height="13.1641" transform="matrix(-1 0 0 1 606 62.8359)" fill="#3C3CA3"/>
<rect x="83" y="38.2678" width="13" height="37.7321" fill="#3C3CA3"/>
<rect width="13" height="17.2205" transform="matrix(-1 0 0 1 465 58.7795)" fill="#3C3CA3"/>
<rect x="224" y="9.87305" width="13" height="66.1269" fill="#3C3CA3"/>
<rect width="13" height="30.1551" transform="matrix(-1 0 0 1 324 45.845)" fill="#3C3CA3"/>
<rect width="13" height="15.1541" transform="matrix(-1 0 0 1 578 60.8459)" fill="#3C3CA3"/>
<rect x="111" y="40.717" width="13" height="35.283" fill="#3C3CA3"/>
<rect width="13" height="16.0725" transform="matrix(-1 0 0 1 437 59.9275)" fill="#3C3CA3"/>
<rect x="252" width="13" height="76" fill="#3C3CA3"/>
<rect width="13" height="34.6707" transform="matrix(-1 0 0 1 296 41.3293)" fill="#3C3CA3"/>
</g>
<g opacity="0.2">
<rect x="537" y="78.7563" width="13" height="2.7563" transform="rotate(180 537 78.7563)" fill="#DA035D"/>
<rect width="13" height="8.03727" transform="matrix(1 -8.74228e-08 -8.74228e-08 -1 126 84.0374)" fill="#DA035D"/>
<rect x="396" y="79.6597" width="13" height="3.65962" transform="rotate(180 396 79.6597)" fill="#DA035D"/>
<rect x="649" y="79.0342" width="13" height="3.03424" transform="rotate(180 649 79.0342)" fill="#DA035D"/>
<rect width="13" height="8.43103" transform="matrix(1 -8.74228e-08 -8.74228e-08 -1 14 84.4309)" fill="#DA035D"/>
<rect x="508" y="79.845" width="13" height="3.84492" transform="rotate(180 508 79.845)" fill="#DA035D"/>
<rect width="13" height="15.2407" transform="matrix(1 -8.74228e-08 -8.74228e-08 -1 155 91.2407)" fill="#DA035D"/>
<rect x="367" y="82.9487" width="13" height="6.94865" transform="rotate(180 367 82.9487)" fill="#DA035D"/>
<rect x="621" y="77.9919" width="13" height="1.99195" transform="rotate(180 621 77.9919)" fill="#DA035D"/>
<rect width="13" height="7.48138" transform="matrix(1 -8.74228e-08 -8.74228e-08 -1 42 83.4814)" fill="#DA035D"/>
<rect x="480" y="79.4048" width="13" height="3.40484" transform="rotate(180 480 79.4048)" fill="#DA035D"/>
<rect width="13" height="9.9829" transform="matrix(1 -8.74228e-08 -8.74228e-08 -1 183 85.9829)" fill="#DA035D"/>
<rect x="339" y="80.563" width="13" height="4.56295" transform="rotate(180 339 80.563)" fill="#DA035D"/>
<rect x="593" y="79.9839" width="13" height="3.98389" transform="rotate(180 593 79.9839)" fill="#DA035D"/>
<rect width="13" height="11.419" transform="matrix(1 -8.74228e-08 -8.74228e-08 -1 70 87.4189)" fill="#DA035D"/>
<rect x="452" y="81.2114" width="13" height="5.21149" transform="rotate(180 452 81.2114)" fill="#DA035D"/>
<rect width="13" height="20.0121" transform="matrix(1 -8.74228e-08 -8.74228e-08 -1 211 96.0122)" fill="#DA035D"/>
<rect x="311" y="85.1257" width="13" height="9.1259" transform="rotate(180 311 85.1257)" fill="#DA035D"/>
<rect x="565" y="80.5859" width="13" height="4.58611" transform="rotate(180 565 80.5859)" fill="#DA035D"/>
<rect width="13" height="10.6778" transform="matrix(1 -8.74228e-08 -8.74228e-08 -1 98 86.6777)" fill="#DA035D"/>
<rect x="424" y="80.864" width="13" height="4.86406" transform="rotate(180 424 80.864)" fill="#DA035D"/>
<rect width="13" height="23" transform="matrix(1 -8.74228e-08 -8.74228e-08 -1 239 99)" fill="#DA035D"/>
<rect x="283" y="86.4924" width="13" height="10.4925" transform="rotate(180 283 86.4924)" fill="#DA035D"/>
</g>
<path opacity="0.2" d="M-162 76H855" stroke="#1E1E8B"/>
</svg>
