<svg width="8" height="6" viewBox="0 0 8 6" fill="none" xmlns="http://www.w3.org/2000/svg">
<path d="M7.85549 0.828255L7.15356 0.141395C7.05732 0.0471434 6.94026 0 6.80267 0C6.66496 0 6.5479 0.0471434 6.45166 0.141395L3.06581 3.4596L1.54838 1.96967C1.45202 1.87539 1.33504 1.8283 1.19745 1.8283C1.05977 1.8283 0.942791 1.87539 0.846436 1.96967L0.144514 2.65655C0.0481591 2.75082 0 2.86533 0 3.00004C0 3.13464 0.0481591 3.24925 0.144514 3.3435L2.71484 5.85859C2.81114 5.95291 2.92816 6 3.06581 6C3.20339 6 3.32041 5.95279 3.41677 5.85859L7.85549 1.51517C7.95175 1.42088 8 1.30639 8 1.17169C8.00007 1.03705 7.95175 0.922542 7.85549 0.828255Z" fill="white"/>
</svg>
