<svg width="144" height="144" viewBox="0 0 144 144" fill="none" xmlns="http://www.w3.org/2000/svg">
<g clip-path="url(#clip0)">
<path d="M143.985 67.1089C143.985 68.743 142.66 70.0679 141.026 70.0679H18.8364C17.2022 70.0679 15.8774 68.743 15.8774 67.1089V2.95899C15.8774 1.32483 17.2022 0 18.8364 0H141.026C142.66 0 143.985 1.32483 143.985 2.95899V67.1089Z" fill="#78C2A4"/>
<path d="M143.984 2.95899C143.984 1.32483 142.66 0 141.025 0H135.272C136.906 0 138.231 1.32483 138.231 2.95899V67.1089C138.231 68.743 136.906 70.0679 135.272 70.0679H141.025C142.66 70.0679 143.984 68.743 143.984 67.1089V2.95899Z" fill="#66B394"/>
<path d="M75.1 144H47.1864C45.187 144 43.5657 142.379 43.5657 140.38V136.238C43.5657 134.238 45.1867 132.617 47.1864 132.617H75.1C77.0995 132.617 78.7207 134.238 78.7207 136.238V140.38C78.7207 142.379 77.0998 144 75.1 144Z" fill="#EAB14D"/>
<path d="M75.1 132.617H69.3122C71.3117 132.617 72.9329 134.238 72.9329 136.237V140.379C72.9329 142.378 71.3119 143.999 69.3122 143.999H75.1C77.0995 143.999 78.7207 142.378 78.7207 140.379V136.237C78.7207 134.238 77.0997 132.617 75.1 132.617Z" fill="#E49542"/>
<path d="M79.7314 121.234H51.8178C49.8183 121.234 48.1971 119.613 48.1971 117.613V113.471C48.1971 111.472 49.818 109.851 51.8178 109.851H79.7314C81.7309 109.851 83.3521 111.472 83.3521 113.471V117.613C83.3518 119.613 81.7309 121.234 79.7314 121.234Z" fill="#EAB14D"/>
<path d="M79.7314 109.851H73.9436C75.9431 109.851 77.5643 111.472 77.5643 113.472V117.613C77.5643 119.613 75.9434 121.234 73.9436 121.234H79.7314C81.7309 121.234 83.3521 119.613 83.3521 117.613V113.472C83.3518 111.472 81.7309 109.851 79.7314 109.851Z" fill="#E49542"/>
<path d="M75.1 132.617H47.1864C45.187 132.617 43.5657 130.996 43.5657 128.996V124.854C43.5657 122.855 45.1867 121.233 47.1864 121.233H75.1C77.0995 121.233 78.7207 122.854 78.7207 124.854V128.996C78.7207 130.996 77.0998 132.617 75.1 132.617Z" fill="#F6E266"/>
<path d="M75.1 121.234H69.3122C71.3117 121.234 72.9329 122.855 72.9329 124.854V128.996C72.9329 130.996 71.3119 132.617 69.3122 132.617H75.1C77.0995 132.617 78.7207 130.996 78.7207 128.996V124.854C78.7207 122.855 77.0997 121.234 75.1 121.234Z" fill="#ECBE6B"/>
<path d="M134.877 48.5281C135.109 48.5208 135.294 48.3304 135.294 48.0978V21.97C135.294 21.7374 135.11 21.5473 134.877 21.5397C128.108 21.324 122.66 15.876 122.444 9.10699C122.437 8.8747 122.247 8.68994 122.014 8.68994H37.8474C37.6148 8.68994 37.4247 8.87442 37.4171 9.10699C37.2014 15.876 31.7533 21.324 24.9844 21.5397C24.7521 21.547 24.5673 21.7374 24.5673 21.97V48.5213C31.6676 48.5213 37.4236 54.2774 37.4236 61.3776H122.438C122.438 54.4168 127.97 48.748 134.877 48.5281Z" fill="#E0F8C5"/>
<path d="M122.445 9.10748C122.437 8.87519 122.247 8.69043 122.014 8.69043H114.572C114.572 14.314 118.182 19.0942 123.212 20.8394C125.734 21.7146 127.428 24.0928 127.428 26.7622V43.3061C127.428 45.9774 125.736 48.3531 123.212 49.2288C118.182 50.9741 114.572 55.7542 114.572 61.3778H122.438C122.438 54.417 127.97 48.7482 134.877 48.5283C135.11 48.521 135.295 48.3306 135.295 48.098V21.9702C135.295 21.7376 135.11 21.5475 134.877 21.5399C128.109 21.3242 122.66 15.8762 122.445 9.10748Z" fill="#CCF49F"/>
<path d="M79.4305 49.5193C76.6065 49.5193 74.875 49.2586 72.0342 47.4003C71.0299 46.7434 70.7484 45.3969 71.4054 44.3927C72.0623 43.3882 73.4088 43.1072 74.4127 43.7639C76.3838 45.0536 77.2421 45.1908 79.7596 45.1728C82.4975 45.1545 84.0867 43.1129 84.4042 41.2239C84.529 40.4812 84.7079 37.9778 81.7711 36.9395C77.933 35.5829 75.719 34.521 74.1301 33.2747C72.2715 31.8171 71.4236 29.2853 71.9172 26.6674C72.4554 23.811 74.4425 21.5385 77.1034 20.7368C82.1988 19.2024 87.1967 21.6622 87.407 21.768C88.4793 22.306 88.913 23.6117 88.3747 24.6842C87.8376 25.7546 86.535 26.1879 85.4649 25.655C85.3828 25.6151 81.7486 23.876 78.3566 24.8974C77.0399 25.2939 76.3725 26.4874 76.1872 27.4722C75.9985 28.4748 76.2435 29.4104 76.8118 29.8559C78.2888 31.0142 80.8797 32.0159 83.2194 32.843C87.2332 34.2617 89.3804 37.8344 88.6897 41.9444C88.0612 45.6826 84.8021 49.4847 79.7885 49.5182C79.6673 49.5188 79.5475 49.5193 79.4305 49.5193Z" fill="#365E7D"/>
<path d="M79.7739 53.1391C78.5739 53.1391 77.6012 52.1663 77.6012 50.9664V19.1019C77.6012 17.9019 78.5736 16.9292 79.7739 16.9292C80.9741 16.9292 81.9466 17.9019 81.9466 19.1019V50.9666C81.9463 52.1666 80.9739 53.1391 79.7739 53.1391Z" fill="#365E7D"/>
<path d="M133.906 13.3767C132.706 13.3767 131.734 12.4039 131.734 11.204V10.6244C131.734 9.4244 132.706 8.45166 133.906 8.45166C135.107 8.45166 136.079 9.4244 136.079 10.6244V11.204C136.079 12.4039 135.106 13.3767 133.906 13.3767Z" fill="#E0F8C5"/>
<path d="M133.906 61.6159C132.706 61.6159 131.734 60.6432 131.734 59.4432V58.8636C131.734 57.6637 132.706 56.6909 133.906 56.6909C135.107 56.6909 136.079 57.6637 136.079 58.8636V59.4432C136.079 60.6432 135.106 61.6159 133.906 61.6159Z" fill="#E0F8C5"/>
<path d="M25.9554 13.3767C24.7555 13.3767 23.7827 12.4039 23.7827 11.204V10.6244C23.7827 9.4244 24.7552 8.45166 25.9554 8.45166C27.1554 8.45166 28.1281 9.4244 28.1281 10.6244V11.204C28.1281 12.4039 27.1554 13.3767 25.9554 13.3767Z" fill="#E0F8C5"/>
<path d="M128.122 98.2353C128.122 99.8695 126.797 101.194 125.163 101.194H2.97444C1.34027 101.194 0.0154419 99.8695 0.0154419 98.2353V34.0855C0.0154419 32.4513 1.34027 31.1265 2.97444 31.1265H125.164C126.798 31.1265 128.123 32.4513 128.123 34.0855V98.2353H128.122Z" fill="#78C2A4"/>
<path d="M128.122 34.0855C128.122 32.4513 126.797 31.1265 125.163 31.1265H119.41C121.044 31.1265 122.369 32.4513 122.369 34.0855V98.2353C122.369 99.8695 121.044 101.194 119.41 101.194H125.163C126.797 101.194 128.122 99.8695 128.122 98.2353V34.0855Z" fill="#66B394"/>
<path d="M119.432 79.6478V53.0964C119.432 52.8639 119.248 52.6738 119.015 52.6662C112.246 52.4505 106.798 47.0024 106.582 40.2335C106.575 40.0012 106.385 39.8164 106.152 39.8164H21.9852C21.7526 39.8164 21.5625 40.0009 21.5549 40.2335C21.3392 47.0024 15.8911 52.4505 9.12219 52.6662C8.8899 52.6735 8.70514 52.8639 8.70514 53.0964V79.2243C8.70514 79.4569 8.88962 79.647 9.12219 79.6546C16.0295 79.8748 21.5614 85.5433 21.5614 92.5041H106.576C106.576 85.4035 112.332 79.6478 119.432 79.6478Z" fill="#E0F8C5"/>
<path d="M106.583 40.2335C106.575 40.0012 106.385 39.8164 106.152 39.8164H98.7092C98.7092 45.44 102.32 50.2201 107.349 51.9654C109.871 52.8405 111.565 55.2188 111.565 57.8881V74.432C111.565 77.1033 109.873 79.4791 107.349 80.3548C102.32 82.1 98.7092 86.8802 98.7092 92.5038H106.576C106.576 85.4035 112.332 79.6475 119.432 79.6475V53.0962C119.432 52.8636 119.248 52.6735 119.015 52.6659C112.246 52.4505 106.798 47.0024 106.583 40.2335Z" fill="#CCF49F"/>
<path d="M63.5661 80.6452C60.7437 80.6452 59.012 80.3845 56.1717 78.5265C55.1674 77.8696 54.8859 76.5231 55.5429 75.5192C56.1998 74.5149 57.5457 74.2337 58.5502 74.8903C60.5219 76.18 61.3731 76.317 63.8973 76.2993C66.6353 76.2813 68.2245 74.2396 68.542 72.3501C68.6668 71.6077 68.8457 69.104 65.9089 68.066C62.07 66.7088 59.8559 65.6469 58.2676 64.4009C56.4093 62.9436 55.5611 60.4118 56.0547 57.7936C56.5929 54.937 58.5803 52.6647 61.2412 51.8632C66.3361 50.3278 71.3339 52.7884 71.5446 52.8942C72.6168 53.4322 73.0505 54.7379 72.5122 55.8104C71.9754 56.8808 70.6739 57.3147 69.6027 56.7815C69.531 56.7469 65.8912 55.0002 62.4943 56.0239C61.1777 56.4204 60.5101 57.6139 60.325 58.5984C60.136 59.6007 60.3813 60.5366 60.9493 60.9821C62.4257 62.1401 65.0172 63.1418 67.3575 63.9692C71.371 65.3879 73.5182 68.9605 72.8272 73.0706C72.1987 76.8088 68.9396 80.6109 63.9263 80.6444C63.804 80.6449 63.6842 80.6452 63.5661 80.6452Z" fill="#365E7D"/>
<path d="M63.9117 84.2653C62.7117 84.2653 61.739 83.2928 61.739 82.0926V50.2279C61.739 49.0279 62.7114 48.0552 63.9117 48.0552C65.1116 48.0552 66.0844 49.0279 66.0844 50.2279V82.0926C66.0844 83.2926 65.1119 84.2653 63.9117 84.2653Z" fill="#365E7D"/>
<path d="M96.5863 66.16C96.5863 67.36 95.6139 68.3327 94.4136 68.3327H88.3952C87.1953 68.3327 86.2225 67.36 86.2225 66.16C86.2225 64.96 87.195 63.9873 88.3952 63.9873H94.4136C95.6139 63.9873 96.5863 64.96 96.5863 66.16Z" fill="#365E7D"/>
<path d="M39.7425 68.3327H33.7239C32.5239 68.3327 31.5511 67.36 31.5511 66.16C31.5511 64.96 32.5236 63.9873 33.7239 63.9873H39.7425C40.9425 63.9873 41.9152 64.96 41.9152 66.16C41.9152 67.36 40.9425 68.3327 39.7425 68.3327Z" fill="#365E7D"/>
<path d="M118.044 44.5031C116.844 44.5031 115.872 43.5304 115.872 42.3304V41.7508C115.872 40.5509 116.844 39.5781 118.044 39.5781C119.245 39.5781 120.217 40.5509 120.217 41.7508V42.3304C120.217 43.5307 119.244 44.5031 118.044 44.5031Z" fill="#E0F8C5"/>
<path d="M10.0935 44.5031C8.89358 44.5031 7.92084 43.5304 7.92084 42.3304V41.7508C7.92084 40.5509 8.89329 39.5781 10.0935 39.5781C11.2938 39.5781 12.2662 40.5509 12.2662 41.7508V42.3304C12.266 43.5307 11.2935 44.5031 10.0935 44.5031Z" fill="#E0F8C5"/>
<path d="M10.0935 92.7424C8.89358 92.7424 7.92084 91.7699 7.92084 90.5697V89.9901C7.92084 88.7901 8.89329 87.8174 10.0935 87.8174C11.2938 87.8174 12.2662 88.7898 12.2662 89.9901V90.5697C12.266 91.7699 11.2935 92.7424 10.0935 92.7424Z" fill="#E0F8C5"/>
<path d="M32.8928 144C48.0143 144 60.2727 131.742 60.2727 116.62C60.2727 101.499 48.0143 89.2402 32.8928 89.2402C17.7714 89.2402 5.513 101.499 5.513 116.62C5.513 131.742 17.7714 144 32.8928 144Z" fill="#F6E266"/>
<path d="M32.8929 89.2402C31.7731 89.2402 30.6715 89.3153 29.5872 89.4461C43.1484 91.0794 53.661 102.618 53.661 116.62C53.661 130.622 43.1484 142.161 29.5872 143.794C30.6715 143.925 31.7731 144 32.8929 144C48.0144 144 60.2727 131.742 60.2727 116.62C60.2727 101.499 48.0144 89.2402 32.8929 89.2402Z" fill="#ECBE6B"/>
<path d="M32.8926 137.058C21.623 137.058 12.4543 127.89 12.4543 116.62C12.4543 105.35 21.623 96.1821 32.8926 96.1821C44.1622 96.1821 53.3308 105.35 53.3308 116.62C53.3308 127.89 44.1624 137.058 32.8926 137.058ZM32.8926 100.527C24.0187 100.527 16.7995 107.746 16.7995 116.62C16.7995 125.494 24.0187 132.713 32.8926 132.713C41.7664 132.713 48.9856 125.494 48.9856 116.62C48.9859 107.746 41.7664 100.527 32.8926 100.527Z" fill="#EAB14D"/>
<path d="M116.605 128.574C131.726 128.574 143.984 116.316 143.984 101.194C143.984 86.0728 131.726 73.8145 116.605 73.8145C101.483 73.8145 89.2248 86.0728 89.2248 101.194C89.2248 116.316 101.483 128.574 116.605 128.574Z" fill="#F6E266"/>
<path d="M116.605 73.8145C115.485 73.8145 114.383 73.8895 113.299 74.0203C126.86 75.6536 137.373 87.1926 137.373 101.194C137.373 115.196 126.86 126.735 113.299 128.368C114.383 128.499 115.485 128.574 116.605 128.574C131.726 128.574 143.984 116.316 143.984 101.194C143.984 86.0728 131.726 73.8145 116.605 73.8145Z" fill="#ECBE6B"/>
<path d="M116.605 121.632C105.335 121.632 96.1667 112.464 96.1667 101.194C96.1667 89.9245 105.335 80.7559 116.605 80.7559C127.875 80.7559 137.043 89.9245 137.043 101.194C137.043 112.464 127.875 121.632 116.605 121.632ZM116.605 85.1007C107.731 85.1007 100.512 92.3199 100.512 101.194C100.512 110.067 107.731 117.287 116.605 117.287C125.479 117.287 132.698 110.067 132.698 101.194C132.698 92.3199 125.479 85.1007 116.605 85.1007Z" fill="#EAB14D"/>
<path d="M39.0274 118.793H26.7583C25.5584 118.793 24.5856 117.82 24.5856 116.62C24.5856 115.42 25.5581 114.447 26.7583 114.447H39.0274C40.2274 114.447 41.2001 115.42 41.2001 116.62C41.2001 117.82 40.2274 118.793 39.0274 118.793Z" fill="#EAB14D"/>
<path d="M122.739 103.367H110.47C109.27 103.367 108.297 102.394 108.297 101.194C108.297 99.9942 109.27 99.0215 110.47 99.0215H122.739C123.939 99.0215 124.912 99.9939 124.912 101.194C124.912 102.394 123.939 103.367 122.739 103.367Z" fill="#EAB14D"/>
</g>
<defs>
<clipPath id="clip0">
<rect width="144" height="144" fill="white"/>
</clipPath>
</defs>
</svg>
