<svg width="34" height="34" viewBox="0 0 34 34" fill="none" xmlns="http://www.w3.org/2000/svg">
<g clip-path="url(#clip0)">
<path d="M21.0504 0C13.9101 0 8.10092 5.80913 8.10092 12.9495C8.10092 16.1619 9.27713 19.1045 11.221 21.3702L9.58042 23.0107L8.17165 21.602L0 29.7738L4.22618 34L12.3978 25.8282L10.9891 24.4195L12.6297 22.7789C14.8954 24.7227 17.838 25.8989 21.0504 25.8989C28.1907 25.8989 33.9999 20.0898 33.9999 12.9495C33.9999 5.80913 28.1907 0 21.0504 0V0ZM4.22618 31.1825L2.81741 29.7738L8.17165 24.4195L9.58042 25.8282L4.22618 31.1825ZM21.0504 23.9067C15.0086 23.9067 10.0931 18.9913 10.0931 12.9495C10.0931 6.90765 15.0086 1.99223 21.0504 1.99223C27.0922 1.99223 32.0076 6.90765 32.0076 12.9495C32.0076 18.9913 27.0922 23.9067 21.0504 23.9067Z" fill="black"/>
<path d="M23.0418 9.96118C24.6896 9.96118 26.0302 8.62061 26.0302 6.97284C26.0302 5.32507 24.6896 3.9845 23.0418 3.9845C21.3941 3.9845 20.0535 5.32507 20.0535 6.97284C20.0535 7.28402 20.1014 7.58418 20.1901 7.86648L16.7281 10.463C16.2539 10.1463 15.6847 9.96118 15.0729 9.96118C13.4252 9.96118 12.0846 11.3017 12.0846 12.9495C12.0846 14.5973 13.4252 15.9379 15.0729 15.9379C15.6847 15.9379 16.2539 15.7528 16.7281 15.4361L20.1901 18.0325C20.1014 18.3148 20.0535 18.615 20.0535 18.9262C20.0535 20.574 21.3941 21.9145 23.0418 21.9145C24.6896 21.9145 26.0302 20.574 26.0302 18.9262C26.0302 17.2784 24.6896 15.9379 23.0418 15.9379C22.43 15.9379 21.8608 16.1229 21.3866 16.4397L17.9247 13.8432C18.0133 13.5609 18.0613 13.2608 18.0613 12.9495C18.0613 12.6383 18.0133 12.3382 17.9247 12.0558L21.3866 9.45933C21.8608 9.7761 22.43 9.96118 23.0418 9.96118ZM23.0418 5.97672C23.5911 5.97672 24.038 6.42358 24.038 6.97284C24.038 7.52209 23.5911 7.96895 23.0418 7.96895C22.4926 7.96895 22.0457 7.52209 22.0457 6.97284C22.0457 6.42358 22.4925 5.97672 23.0418 5.97672ZM15.0729 13.9456C14.5237 13.9456 14.0768 13.4988 14.0768 12.9495C14.0768 12.4003 14.5237 11.9534 15.0729 11.9534C15.6222 11.9534 16.069 12.4003 16.069 12.9495C16.069 13.4988 15.6222 13.9456 15.0729 13.9456ZM23.0418 17.9301C23.5911 17.9301 24.038 18.3769 24.038 18.9262C24.038 19.4755 23.5911 19.9223 23.0418 19.9223C22.4926 19.9223 22.0457 19.4755 22.0457 18.9262C22.0457 18.3769 22.4925 17.9301 23.0418 17.9301Z" fill="black"/>
</g>
<defs>
<clipPath id="clip0">
<rect width="34" height="34" fill="white"/>
</clipPath>
</defs>
</svg>
